<svg width="38" height="53" viewBox="0 0 38 53" fill="none" xmlns="http://www.w3.org/2000/svg">
<path fill-rule="evenodd" clip-rule="evenodd" d="M7.73116 1.51842L0 6.32674V27.4761L2.94863 37.4181L7.29966 44.0703L13.4127 49.7824L20.7123 53V50.6139L17.9795 48.264V42.3711H20.7123V35.7873L18.9503 37.4181H10.3202L4.71062 28.3799L11.7586 33.9475H16.3613L19.8853 30.766H20.7123V0L7.73116 1.51842ZM7.69521 18.2572L5.89726 19.4502L7.69521 20.6794L10.7517 21.2578L13.5205 20.6794L15.2466 19.4502L13.5205 18.2572L10.7517 17.6426L7.69521 18.2572ZM6.14897 13.3042L4.81849 15.2565L8.4863 13.3042L10.3562 12.9427L11.9024 13.3042L13.2329 13.955L14.6712 15.4734L15.9298 17.3533L16.6849 17.6426H17.3322L18.5188 15.0396L17.1164 13.3042L15.2466 11.6774L13.7723 10.9543L11.9024 10.5928L10.1404 10.7374L8.09075 11.6774L6.14897 13.3042Z" fill="white"/>
<path d="M20.7123 50.6139L23.4092 48.264V42.3711H20.7123V50.6139Z" fill="white"/>
<path d="M21.2158 35.3213L23.4812 37.4181H31.7877L37.3973 28.3799L30.6729 33.9475H25.7466L22.2945 30.766H20.7123V35.7873L21.2158 35.3213Z" fill="white"/>
<path d="M27.0411 19.4502L28.7312 18.2572L31.6438 17.6426L34.4846 18.2572L36.2466 19.4502L34.4846 20.6794L31.6438 21.2578L28.7312 20.6794L27.0411 19.4502Z" fill="white"/>
<path d="M23.625 15.0396L24.8116 17.6426H25.7106L26.1781 17.3533L27.5445 15.4734L28.911 13.955L30.0976 13.3042L31.6438 12.9427L33.6216 13.3042L35.6353 14.208L37.4332 15.2926L36.0308 13.3042L34.4846 11.8943L32.5069 10.9181L30.3493 10.5928L28.7312 10.9181L26.3938 12.0389L24.4521 13.955L23.625 15.0396Z" fill="white"/>
</svg>
