<svg width="715" height="197" viewBox="0 0 715 197" fill="none" xmlns="http://www.w3.org/2000/svg">
<path d="M0.858215 194.592V38.4307H43.2537V160.432H104.14V194.592H0.858215Z" fill="url(#paint0_linear_11_25)"/>
<path d="M144.744 196.727C132.239 196.727 121.462 194.338 112.413 189.56C103.416 184.73 96.477 177.817 91.597 168.82C86.7677 159.771 84.3531 148.943 84.3531 136.337C84.3531 124.238 86.7931 113.665 91.6732 104.616C96.5532 95.5679 103.441 88.5274 112.337 83.4949C121.233 78.4623 131.73 75.9461 143.829 75.9461C152.674 75.9461 160.68 77.3186 167.848 80.0636C175.015 82.8086 181.141 86.7991 186.224 92.035C191.308 97.22 195.222 103.523 197.967 110.945C200.712 118.367 202.084 126.729 202.084 136.032V145.792H97.4683V122.612H163.349C163.298 119.256 162.434 116.308 160.756 113.766C159.13 111.174 156.918 109.166 154.123 107.743C151.378 106.268 148.251 105.531 144.744 105.531C141.338 105.531 138.212 106.268 135.365 107.743C132.518 109.166 130.231 111.148 128.502 113.69C126.825 116.232 125.935 119.206 125.834 122.612V147.622C125.834 151.383 126.621 154.739 128.197 157.687C129.773 160.635 132.035 162.948 134.984 164.626C137.932 166.303 141.49 167.142 145.659 167.142C148.556 167.142 151.2 166.735 153.589 165.922C156.029 165.109 158.113 163.939 159.841 162.414C161.57 160.839 162.841 158.958 163.654 156.772H202.084C200.763 164.905 197.636 171.971 192.705 177.97C187.775 183.917 181.242 188.543 173.109 191.847C165.026 195.101 155.571 196.727 144.744 196.727Z" fill="url(#paint1_linear_11_25)"/>
<path d="M308.093 77.4711L268.747 194.592H219.947L180.601 77.4711H224.827L243.737 154.942H244.957L263.867 77.4711H308.093Z" fill="url(#paint2_linear_11_25)"/>
<path d="M351.612 196.727C339.107 196.727 328.33 194.338 319.282 189.56C310.284 184.73 303.346 177.817 298.466 168.82C293.636 159.771 291.222 148.943 291.222 136.337C291.222 124.238 293.662 113.665 298.542 104.616C303.422 95.5679 310.31 88.5274 319.206 83.4949C328.102 78.4623 338.599 75.9461 350.697 75.9461C359.542 75.9461 367.549 77.3186 374.716 80.0636C381.884 82.8086 388.009 86.7991 393.093 92.035C398.176 97.22 402.09 103.523 404.835 110.945C407.58 118.367 408.953 126.729 408.953 136.032V145.792H304.337V122.612H370.218C370.167 119.256 369.303 116.308 367.625 113.766C365.998 111.174 363.787 109.166 360.991 107.743C358.246 106.268 355.12 105.531 351.612 105.531C348.207 105.531 345.08 106.268 342.234 107.743C339.387 109.166 337.099 111.148 335.371 113.69C333.693 116.232 332.804 119.206 332.702 122.612V147.622C332.702 151.383 333.49 154.739 335.066 157.687C336.642 160.635 338.904 162.948 341.852 164.626C344.801 166.303 348.359 167.142 352.527 167.142C355.425 167.142 358.068 166.735 360.457 165.922C362.897 165.109 364.982 163.939 366.71 162.414C368.438 160.839 369.709 158.958 370.523 156.772H408.953C407.631 164.905 404.505 171.971 399.574 177.97C394.643 183.917 388.111 188.543 379.978 191.847C371.895 195.101 362.44 196.727 351.612 196.727Z" fill="url(#paint3_linear_11_25)"/>
<path d="M446.62 38.4307V194.592H404.53V38.4307H446.62Z" fill="url(#paint4_linear_11_25)"/>
<path d="M536.387 38.43H578.782V138.471C578.782 150.366 575.936 160.66 570.242 169.353C564.6 177.994 556.72 184.679 546.604 189.407C536.488 194.083 524.746 196.422 511.377 196.422C497.906 196.422 486.112 194.083 475.996 189.407C465.88 184.679 458.001 177.994 452.358 169.353C446.767 160.66 443.971 150.366 443.971 138.471L443.971 37.3629H486.366L486.366 134.811C486.366 139.64 487.434 143.961 489.569 147.774C491.704 151.535 494.652 154.484 498.414 156.619C502.226 158.754 506.547 159.821 511.377 159.821C516.257 159.821 520.577 158.754 524.339 156.619C528.101 154.484 531.049 151.535 533.184 147.774C535.319 143.961 536.387 139.64 536.387 134.811V38.43Z" fill="#293280"/>
<path d="M536.387 38.43H578.782V138.471C578.782 150.366 575.936 160.66 570.242 169.353C564.6 177.994 556.72 184.679 546.604 189.407C536.488 194.083 524.746 196.422 511.377 196.422C497.906 196.422 486.112 194.083 475.996 189.407C465.88 184.679 458.001 177.994 452.358 169.353C446.767 160.66 443.971 150.366 443.971 138.471L443.971 37.3629H486.366L486.366 134.811C486.366 139.64 487.434 143.961 489.569 147.774C491.704 151.535 494.652 154.484 498.414 156.619C502.226 158.754 506.547 159.821 511.377 159.821C516.257 159.821 520.577 158.754 524.339 156.619C528.101 154.484 531.049 151.535 533.184 147.774C535.319 143.961 536.387 139.64 536.387 134.811V38.43Z" fill="url(#paint5_radial_11_25)"/>
<path d="M465.149 0L500.377 38.5829H429.921L465.149 0Z" fill="#293280"/>
<path d="M465.149 0L500.377 38.5829H429.921L465.149 0Z" fill="url(#paint6_radial_11_25)"/>
<path fill-rule="evenodd" clip-rule="evenodd" d="M589.286 38.5824V194.744H631.681V148.383H655.166C667.061 148.383 677.457 146.172 686.353 141.75C695.3 137.327 702.238 131.024 707.169 122.839C712.151 114.655 714.642 104.971 714.642 93.7879C714.642 82.7061 712.227 73.0223 707.398 64.7364C702.569 56.4504 695.808 50.02 687.115 45.4449C678.423 40.8699 668.281 38.5824 656.691 38.5824H589.286ZM631.681 115.443H614.906V148.383H631.681V115.443ZM631.681 115.443V72.4377H646.626C651.608 72.4377 655.852 73.3019 659.36 75.0302C662.918 76.7077 665.638 79.1478 667.519 82.3503C669.451 85.502 670.416 89.3145 670.416 93.7879C670.416 98.2105 669.451 102.048 667.519 105.302C665.638 108.555 662.918 111.071 659.36 112.851C655.852 114.579 651.608 115.443 646.626 115.443H631.681Z" fill="#293280"/>
<path fill-rule="evenodd" clip-rule="evenodd" d="M589.286 38.5824V194.744H631.681V148.383H655.166C667.061 148.383 677.457 146.172 686.353 141.75C695.3 137.327 702.238 131.024 707.169 122.839C712.151 114.655 714.642 104.971 714.642 93.7879C714.642 82.7061 712.227 73.0223 707.398 64.7364C702.569 56.4504 695.808 50.02 687.115 45.4449C678.423 40.8699 668.281 38.5824 656.691 38.5824H589.286ZM631.681 115.443H614.906V148.383H631.681V115.443ZM631.681 115.443V72.4377H646.626C651.608 72.4377 655.852 73.3019 659.36 75.0302C662.918 76.7077 665.638 79.1478 667.519 82.3503C669.451 85.502 670.416 89.3145 670.416 93.7879C670.416 98.2105 669.451 102.048 667.519 105.302C665.638 108.555 662.918 111.071 659.36 112.851C655.852 114.579 651.608 115.443 646.626 115.443H631.681Z" fill="url(#paint7_radial_11_25)"/>
<path d="M614.906 115.443V148.383H631.681V115.443H614.906Z" fill="#293280"/>
<path d="M614.906 115.443V148.383H631.681V115.443H614.906Z" fill="url(#paint8_radial_11_25)"/>
<defs>
<linearGradient id="paint0_linear_11_25" x1="446.697" y1="38.583" x2="29.8335" y2="171.946" gradientUnits="userSpaceOnUse">
<stop stop-color="#81A4FF"/>
<stop offset="1" stop-color="#3E74FF"/>
</linearGradient>
<linearGradient id="paint1_linear_11_25" x1="446.697" y1="38.583" x2="29.8335" y2="171.946" gradientUnits="userSpaceOnUse">
<stop stop-color="#81A4FF"/>
<stop offset="1" stop-color="#3E74FF"/>
</linearGradient>
<linearGradient id="paint2_linear_11_25" x1="446.697" y1="38.583" x2="29.8335" y2="171.946" gradientUnits="userSpaceOnUse">
<stop stop-color="#81A4FF"/>
<stop offset="1" stop-color="#3E74FF"/>
</linearGradient>
<linearGradient id="paint3_linear_11_25" x1="446.697" y1="38.583" x2="29.8335" y2="171.946" gradientUnits="userSpaceOnUse">
<stop stop-color="#81A4FF"/>
<stop offset="1" stop-color="#3E74FF"/>
</linearGradient>
<linearGradient id="paint4_linear_11_25" x1="446.697" y1="38.583" x2="29.8335" y2="171.946" gradientUnits="userSpaceOnUse">
<stop stop-color="#81A4FF"/>
<stop offset="1" stop-color="#3E74FF"/>
</linearGradient>
<radialGradient id="paint5_radial_11_25" cx="0" cy="0" r="1" gradientUnits="userSpaceOnUse" gradientTransform="translate(588.447 196.269) rotate(-90.3048) scale(157.689 185.221)">
<stop stop-color="#3E74FF"/>
<stop offset="1" stop-color="#0047FF" stop-opacity="0"/>
</radialGradient>
<radialGradient id="paint6_radial_11_25" cx="0" cy="0" r="1" gradientUnits="userSpaceOnUse" gradientTransform="translate(588.447 196.269) rotate(-90.3048) scale(157.689 185.221)">
<stop stop-color="#3E74FF"/>
<stop offset="1" stop-color="#0047FF" stop-opacity="0"/>
</radialGradient>
<radialGradient id="paint7_radial_11_25" cx="0" cy="0" r="1" gradientUnits="userSpaceOnUse" gradientTransform="translate(588.447 196.269) rotate(-90.3048) scale(157.689 185.221)">
<stop stop-color="#3E74FF"/>
<stop offset="1" stop-color="#0047FF" stop-opacity="0"/>
</radialGradient>
<radialGradient id="paint8_radial_11_25" cx="0" cy="0" r="1" gradientUnits="userSpaceOnUse" gradientTransform="translate(588.447 196.269) rotate(-90.3048) scale(157.689 185.221)">
<stop stop-color="#3E74FF"/>
<stop offset="1" stop-color="#0047FF" stop-opacity="0"/>
</radialGradient>
</defs>
</svg>
