<svg width="38" height="47" viewBox="0 0 38 47" fill="none" xmlns="http://www.w3.org/2000/svg">
<path d="M37.2344 6.0225L19.7806 0.107271C19.57 0.0357569 19.2875 0 19.005 0C18.7225 0 18.44 0.0357569 18.2294 0.107271L0.775611 6.0225C0.349282 6.16552 0 6.65591 0 7.10542V31.7471C0 32.1966 0.29278 32.7892 0.647199 33.0701L18.3527 46.7906C18.5325 46.9285 18.7636 47 18.9999 47C19.2362 47 19.4724 46.9285 19.6471 46.7906L37.3526 33.0701C37.707 32.7943 37.9998 32.2017 37.9998 31.7471V7.10542C38.0101 6.65591 37.6608 6.17063 37.2344 6.0225ZM28.3791 14.7472L17.4589 29.6987C17.3822 29.8032 17.2817 29.8882 17.1657 29.9468C17.0496 30.0054 16.9213 30.036 16.7912 30.036C16.6611 30.036 16.5328 30.0054 16.4167 29.9468C16.3007 29.8882 16.2002 29.8032 16.1235 29.6987L9.63093 20.8106C9.43574 20.5398 9.63093 20.1618 9.9648 20.1618H12.8001C13.0621 20.1618 13.3138 20.2895 13.4679 20.499L16.7912 25.0452L24.5422 14.4305C24.6963 14.2211 24.9428 14.0934 25.2099 14.0934H28.0453C28.3791 14.0985 28.5743 14.4765 28.3791 14.7472Z" fill="white"/>
</svg>
